<svg width="304" height="190" viewBox="0 0 304 190" fill="none" xmlns="http://www.w3.org/2000/svg">
<g filter="url(#filter0_d_136_1528)">
<mask id="path-1-outside-1_136_1528" maskUnits="userSpaceOnUse" x="23.4" y="23.3333" width="257" height="142" fill="black">
<rect fill="white" x="23.4" y="23.3333" width="257" height="142"/>
<path d="M36 89.3333V35.9999H57.3334V46.6666H78.6667V35.9999H100V89.3333H36ZM57.3334 57.3333V67.9999H78.6667V57.3333H57.3334ZM121.333 89.3333V35.9999H142.667V89.3333H121.333ZM46.6667 153.333V121.333H89.3334V132H142.667V153.333H46.6667ZM46.6667 110.667V99.9999H142.667V121.333H89.3334V110.667H46.6667ZM160.8 99.9999V35.9999H182.133V78.6666H235.467V99.9999H224.8V110.667H267.467V121.333H256.8V142.667H246.133V153.333H192.8V142.667H182.133V121.333H171.467V110.667H214.133V99.9999H160.8ZM203.467 132H235.467V121.333H203.467V132ZM246.133 99.9999V67.9999H214.133V46.6666H246.133V35.9999H267.467V99.9999H246.133Z"/>
</mask>
<path d="M36 89.3333V35.9999H57.3334V46.6666H78.6667V35.9999H100V89.3333H36ZM57.3334 57.3333V67.9999H78.6667V57.3333H57.3334ZM121.333 89.3333V35.9999H142.667V89.3333H121.333ZM46.6667 153.333V121.333H89.3334V132H142.667V153.333H46.6667ZM46.6667 110.667V99.9999H142.667V121.333H89.3334V110.667H46.6667ZM160.8 99.9999V35.9999H182.133V78.6666H235.467V99.9999H224.8V110.667H267.467V121.333H256.8V142.667H246.133V153.333H192.8V142.667H182.133V121.333H171.467V110.667H214.133V99.9999H160.8ZM203.467 132H235.467V121.333H203.467V132ZM246.133 99.9999V67.9999H214.133V46.6666H246.133V35.9999H267.467V99.9999H246.133Z" fill="#E65787"/>
<path d="M36 89.3333H24V101.333H36V89.3333ZM36 35.9999V23.9999H24V35.9999H36ZM57.3334 35.9999H69.3334V23.9999H57.3334V35.9999ZM57.3334 46.6666H45.3334V58.6666H57.3334V46.6666ZM78.6667 46.6666V58.6666H90.6667V46.6666H78.6667ZM78.6667 35.9999V23.9999H66.6667V35.9999H78.6667ZM100 35.9999H112V23.9999H100V35.9999ZM100 89.3333V101.333H112V89.3333H100ZM57.3334 57.3333V45.3333H45.3334V57.3333H57.3334ZM57.3334 67.9999H45.3334V79.9999H57.3334V67.9999ZM78.6667 67.9999V79.9999H90.6667V67.9999H78.6667ZM78.6667 57.3333H90.6667V45.3333H78.6667V57.3333ZM121.333 89.3333H109.333V101.333H121.333V89.3333ZM121.333 35.9999V23.9999H109.333V35.9999H121.333ZM142.667 35.9999H154.667V23.9999H142.667V35.9999ZM142.667 89.3333V101.333H154.667V89.3333H142.667ZM46.6667 153.333H34.6667V165.333H46.6667V153.333ZM46.6667 121.333V109.333H34.6667V121.333H46.6667ZM89.3334 121.333H101.333V109.333H89.3334V121.333ZM89.3334 132H77.3334V144H89.3334V132ZM142.667 132H154.667V120H142.667V132ZM142.667 153.333V165.333H154.667V153.333H142.667ZM46.6667 110.667H34.6667V122.667H46.6667V110.667ZM46.6667 99.9999V87.9999H34.6667V99.9999H46.6667ZM142.667 99.9999H154.667V87.9999H142.667V99.9999ZM142.667 121.333V133.333H154.667V121.333H142.667ZM89.3334 121.333H77.3334V133.333H89.3334V121.333ZM89.3334 110.667H101.333V98.6666H89.3334V110.667ZM36 89.3333H48V35.9999H36H24V89.3333H36ZM36 35.9999V47.9999H57.3334V35.9999V23.9999H36V35.9999ZM57.3334 35.9999H45.3334V46.6666H57.3334H69.3334V35.9999H57.3334ZM57.3334 46.6666V58.6666H78.6667V46.6666V34.6666H57.3334V46.6666ZM78.6667 46.6666H90.6667V35.9999H78.6667H66.6667V46.6666H78.6667ZM78.6667 35.9999V47.9999H100V35.9999V23.9999H78.6667V35.9999ZM100 35.9999H88V89.3333H100H112V35.9999H100ZM100 89.3333V77.3333H36V89.3333V101.333H100V89.3333ZM57.3334 57.3333H45.3334V67.9999H57.3334H69.3334V57.3333H57.3334ZM57.3334 67.9999V79.9999H78.6667V67.9999V55.9999H57.3334V67.9999ZM78.6667 67.9999H90.6667V57.3333H78.6667H66.6667V67.9999H78.6667ZM78.6667 57.3333V45.3333H57.3334V57.3333V69.3333H78.6667V57.3333ZM121.333 89.3333H133.333V35.9999H121.333H109.333V89.3333H121.333ZM121.333 35.9999V47.9999H142.667V35.9999V23.9999H121.333V35.9999ZM142.667 35.9999H130.667V89.3333H142.667H154.667V35.9999H142.667ZM142.667 89.3333V77.3333H121.333V89.3333V101.333H142.667V89.3333ZM46.6667 153.333H58.6667V121.333H46.6667H34.6667V153.333H46.6667ZM46.6667 121.333V133.333H89.3334V121.333V109.333H46.6667V121.333ZM89.3334 121.333H77.3334V132H89.3334H101.333V121.333H89.3334ZM89.3334 132V144H142.667V132V120H89.3334V132ZM142.667 132H130.667V153.333H142.667H154.667V132H142.667ZM142.667 153.333V141.333H46.6667V153.333V165.333H142.667V153.333ZM46.6667 110.667H58.6667V99.9999H46.6667H34.6667V110.667H46.6667ZM46.6667 99.9999V112H142.667V99.9999V87.9999H46.6667V99.9999ZM142.667 99.9999H130.667V121.333H142.667H154.667V99.9999H142.667ZM142.667 121.333V109.333H89.3334V121.333V133.333H142.667V121.333ZM89.3334 121.333H101.333V110.667H89.3334H77.3334V121.333H89.3334ZM89.3334 110.667V98.6666H46.6667V110.667V122.667H89.3334V110.667ZM160.8 99.9999H148.8V112H160.8V99.9999ZM160.8 35.9999V23.9999H148.8V35.9999H160.8ZM182.133 35.9999H194.133V23.9999H182.133V35.9999ZM182.133 78.6666H170.133V90.6666H182.133V78.6666ZM235.467 78.6666H247.467V66.6666H235.467V78.6666ZM235.467 99.9999V112H247.467V99.9999H235.467ZM224.8 99.9999V87.9999H212.8V99.9999H224.8ZM224.8 110.667H212.8V122.667H224.8V110.667ZM267.467 110.667H279.467V98.6666H267.467V110.667ZM267.467 121.333V133.333H279.467V121.333H267.467ZM256.8 121.333V109.333H244.8V121.333H256.8ZM256.8 142.667V154.667H268.8V142.667H256.8ZM246.133 142.667V130.667H234.133V142.667H246.133ZM246.133 153.333V165.333H258.133V153.333H246.133ZM192.8 153.333H180.8V165.333H192.8V153.333ZM192.8 142.667H204.8V130.667H192.8V142.667ZM182.133 142.667H170.133V154.667H182.133V142.667ZM182.133 121.333H194.133V109.333H182.133V121.333ZM171.467 121.333H159.467V133.333H171.467V121.333ZM171.467 110.667V98.6666H159.467V110.667H171.467ZM214.133 110.667V122.667H226.133V110.667H214.133ZM214.133 99.9999H226.133V87.9999H214.133V99.9999ZM203.467 132H191.467V144H203.467V132ZM235.467 132V144H247.467V132H235.467ZM235.467 121.333H247.467V109.333H235.467V121.333ZM203.467 121.333V109.333H191.467V121.333H203.467ZM246.133 99.9999H234.133V112H246.133V99.9999ZM246.133 67.9999H258.133V55.9999H246.133V67.9999ZM214.133 67.9999H202.133V79.9999H214.133V67.9999ZM214.133 46.6666V34.6666H202.133V46.6666H214.133ZM246.133 46.6666V58.6666H258.133V46.6666H246.133ZM246.133 35.9999V23.9999H234.133V35.9999H246.133ZM267.467 35.9999H279.467V23.9999H267.467V35.9999ZM267.467 99.9999V112H279.467V99.9999H267.467ZM160.8 99.9999H172.8V35.9999H160.8H148.8V99.9999H160.8ZM160.8 35.9999V47.9999H182.133V35.9999V23.9999H160.8V35.9999ZM182.133 35.9999H170.133V78.6666H182.133H194.133V35.9999H182.133ZM182.133 78.6666V90.6666H235.467V78.6666V66.6666H182.133V78.6666ZM235.467 78.6666H223.467V99.9999H235.467H247.467V78.6666H235.467ZM235.467 99.9999V87.9999H224.8V99.9999V112H235.467V99.9999ZM224.8 99.9999H212.8V110.667H224.8H236.8V99.9999H224.8ZM224.8 110.667V122.667H267.467V110.667V98.6666H224.8V110.667ZM267.467 110.667H255.467V121.333H267.467H279.467V110.667H267.467ZM267.467 121.333V109.333H256.8V121.333V133.333H267.467V121.333ZM256.8 121.333H244.8V142.667H256.8H268.8V121.333H256.8ZM256.8 142.667V130.667H246.133V142.667V154.667H256.8V142.667ZM246.133 142.667H234.133V153.333H246.133H258.133V142.667H246.133ZM246.133 153.333V141.333H192.8V153.333V165.333H246.133V153.333ZM192.8 153.333H204.8V142.667H192.8H180.8V153.333H192.8ZM192.8 142.667V130.667H182.133V142.667V154.667H192.8V142.667ZM182.133 142.667H194.133V121.333H182.133H170.133V142.667H182.133ZM182.133 121.333V109.333H171.467V121.333V133.333H182.133V121.333ZM171.467 121.333H183.467V110.667H171.467H159.467V121.333H171.467ZM171.467 110.667V122.667H214.133V110.667V98.6666H171.467V110.667ZM214.133 110.667H226.133V99.9999H214.133H202.133V110.667H214.133ZM214.133 99.9999V87.9999H160.8V99.9999V112H214.133V99.9999ZM203.467 132V144H235.467V132V120H203.467V132ZM235.467 132H247.467V121.333H235.467H223.467V132H235.467ZM235.467 121.333V109.333H203.467V121.333V133.333H235.467V121.333ZM203.467 121.333H191.467V132H203.467H215.467V121.333H203.467ZM246.133 99.9999H258.133V67.9999H246.133H234.133V99.9999H246.133ZM246.133 67.9999V55.9999H214.133V67.9999V79.9999H246.133V67.9999ZM214.133 67.9999H226.133V46.6666H214.133H202.133V67.9999H214.133ZM214.133 46.6666V58.6666H246.133V46.6666V34.6666H214.133V46.6666ZM246.133 46.6666H258.133V35.9999H246.133H234.133V46.6666H246.133ZM246.133 35.9999V47.9999H267.467V35.9999V23.9999H246.133V35.9999ZM267.467 35.9999H255.467V99.9999H267.467H279.467V35.9999H267.467ZM267.467 99.9999V87.9999H246.133V99.9999V112H267.467V99.9999Z" fill="#111111" mask="url(#path-1-outside-1_136_1528)"/>
</g>
<defs>
<filter id="filter0_d_136_1528" x="0" y="0" width="303.467" height="189.333" filterUnits="userSpaceOnUse" color-interpolation-filters="sRGB">
<feFlood flood-opacity="0" result="BackgroundImageFix"/>
<feColorMatrix in="SourceAlpha" type="matrix" values="0 0 0 0 0 0 0 0 0 0 0 0 0 0 0 0 0 0 127 0" result="hardAlpha"/>
<feOffset/>
<feGaussianBlur stdDeviation="12"/>
<feComposite in2="hardAlpha" operator="out"/>
<feColorMatrix type="matrix" values="0 0 0 0 0.901961 0 0 0 0 0.341176 0 0 0 0 0.529412 0 0 0 0.5 0"/>
<feBlend mode="normal" in2="BackgroundImageFix" result="effect1_dropShadow_136_1528"/>
<feBlend mode="normal" in="SourceGraphic" in2="effect1_dropShadow_136_1528" result="shape"/>
</filter>
</defs>
</svg>
